<?xml version="1.0" standalone="no"?>
<!DOCTYPE svg PUBLIC "-//W3C//DTD SVG 20010904//EN"
 "http://www.w3.org/TR/2001/REC-SVG-20010904/DTD/svg10.dtd">
<svg version="1.0" xmlns="http://www.w3.org/2000/svg"
 width="500.000000pt" height="500.000000pt" viewBox="0 0 500.000000 500.000000"
 preserveAspectRatio="xMidYMid meet">

<g transform="translate(0.000000,500.000000) scale(0.100000,-0.100000)"
fill="#000000" stroke="none">
<path d="M2421 4840 c-36 -15 -147 -111 -160 -138 -7 -15 -11 -138 -11 -367
l0 -345 -203 0 c-254 0 -285 -7 -367 -88 -42 -42 -62 -70 -73 -107 -9 -27 -50
-273 -92 -545 -41 -272 -79 -502 -83 -512 -4 -9 -45 -44 -92 -79 -416 -305
-646 -752 -627 -1219 4 -115 27 -274 42 -288 6 -6 180 9 193 17 7 4 5 30 -8
84 -112 467 28 934 386 1290 48 48 88 86 90 85 1 -2 -2 -30 -7 -62 -8 -50 -18
-68 -58 -115 -160 -185 -262 -383 -306 -592 -21 -101 -17 -128 6 -39 52 201
150 379 294 538 54 59 75 74 75 52 0 -5 -29 -49 -65 -97 -73 -98 -140 -223
-178 -328 -30 -85 -60 -227 -54 -258 4 -19 4 -19 6 4 2 46 50 197 86 272 45
97 120 209 185 280 67 73 90 63 33 -15 -94 -128 -156 -257 -194 -405 -27 -109
-23 -144 7 -44 44 149 114 280 217 404 32 39 42 46 49 33 6 -10 -5 -36 -38
-86 -25 -40 -62 -106 -81 -147 -36 -79 -84 -247 -82 -292 0 -14 10 8 21 49 10
41 41 120 67 175 48 100 132 225 151 225 21 0 22 -30 2 -57 -57 -81 -121 -243
-141 -357 -15 -83 -12 -113 4 -41 7 33 27 96 44 140 32 84 123 235 141 235 25
0 19 -33 -19 -112 -43 -88 -82 -220 -80 -272 0 -23 4 -15 15 29 14 59 88 220
119 260 14 18 16 18 32 3 15 -16 14 -21 -11 -77 -31 -70 -66 -201 -65 -245 0
-21 6 -8 19 41 19 71 52 149 89 210 20 32 21 32 55 18 30 -13 150 -15 792 -15
567 0 767 3 797 12 23 7 61 32 87 56 l45 43 23 -28 c38 -47 111 -203 132 -283
26 -103 26 -41 -1 72 -13 56 -40 127 -74 193 -32 63 -49 108 -44 116 11 18 30
0 84 -82 57 -85 101 -182 125 -273 13 -49 19 -61 19 -40 2 86 -67 276 -143
393 -31 48 -44 77 -38 83 14 14 23 7 85 -74 85 -111 157 -270 187 -409 9 -41
9 -39 4 16 -14 147 -92 342 -189 474 -33 44 -44 66 -36 74 7 7 23 -4 53 -38
124 -139 217 -316 253 -480 7 -33 14 -48 14 -33 1 43 -26 159 -59 249 -36 99
-103 219 -172 308 -72 91 -48 101 32 14 149 -163 255 -378 293 -593 2 -14 2 3
0 38 -14 191 -114 420 -266 609 -38 46 -67 89 -65 94 5 15 150 -135 207 -214
93 -127 172 -304 206 -458 7 -36 14 -52 14 -36 1 41 -26 166 -56 255 -55 166
-157 333 -288 470 -65 69 -84 95 -89 127 l-7 40 91 -90 c124 -122 209 -237
280 -380 97 -194 134 -335 146 -552 l7 -118 81 7 c44 3 87 7 94 7 15 1 11 57
-14 200 -34 190 -129 408 -251 581 -82 114 -248 284 -358 364 -44 33 -83 62
-87 65 -3 3 -47 242 -98 531 -98 566 -107 599 -176 659 -81 72 -97 76 -331 79
l-213 3 0 356 0 355 -37 35 c-21 19 -58 51 -82 71 l-44 37 -121 2 c-67 2 -132
-2 -145 -7z m302 -232 l-52 -53 -2 -338 c-1 -186 -6 -340 -10 -343 -5 -3 -9
150 -9 339 l0 344 -46 -3 c-25 -1 -65 1 -87 6 -35 7 -28 8 48 9 l90 1 55 45
c30 25 57 45 60 45 2 0 -19 -24 -47 -52z m56 -540 c-1 -412 -4 -550 -12 -513
-20 99 -12 1075 9 1075 2 0 3 -253 3 -562z m506 -330 c17 -74 185 -1141 181
-1146 -3 -3 -8 -3 -11 -1 -2 3 -45 257 -95 564 -50 308 -93 570 -95 583 -3 12
-1 22 5 22 5 0 12 -10 15 -22z m-406 -286 c1 -48 -33 -107 -81 -140 -49 -33
-85 -52 -48 -25 91 66 128 129 116 200 -4 27 -3 32 4 18 5 -11 9 -35 9 -53z
m89 33 c-3 -3 -9 2 -12 12 -6 14 -5 15 5 6 7 -7 10 -15 7 -18z m24 -115 c1
-30 -6 -71 -15 -91 -16 -39 -79 -114 -108 -130 -10 -5 4 13 31 41 65 67 84
119 78 212 -4 54 -3 66 4 48 6 -14 10 -50 10 -80z m136 -125 c-3 -78 -8 -100
-35 -155 -18 -36 -46 -79 -64 -95 -28 -26 -26 -23 10 25 61 81 85 167 79 289
-4 70 -2 87 4 61 6 -19 8 -75 6 -125z m-235 74 c-54 -99 -167 -159 -313 -165
-85 -3 -85 -3 -20 5 169 22 286 85 335 181 9 17 18 30 21 30 3 0 -7 -23 -23
-51z m121 -129 c-68 -126 -245 -223 -399 -219 l-50 1 60 9 c185 27 316 104
388 230 32 56 33 38 1 -21z m158 -127 c-45 -120 -154 -238 -272 -298 -66 -33
-170 -66 -206 -64 -11 0 10 8 46 18 193 52 353 184 422 348 27 66 35 63 10 -4z"/>
<path d="M2987 1870 c-5 -18 -14 -20 -79 -20 l-75 0 -11 -51 c-16 -66 -15 -69
8 -69 13 0 22 9 26 28 3 15 7 32 9 38 3 11 72 24 125 24 28 0 40 15 40 51 0
26 -36 25 -43 -1z"/>
<path d="M2645 1675 c-93 -170 -110 -195 -131 -195 -27 0 -34 -27 -9 -36 43
-17 61 3 163 189 122 221 129 237 103 237 -14 0 -46 -49 -126 -195z"/>
<path d="M2516 1708 c4 -84 8 -155 10 -157 2 -2 10 11 18 30 11 27 12 58 5
147 -8 114 -12 132 -30 132 -6 0 -7 -57 -3 -152z"/>
<path d="M2340 1843 c0 -5 7 -73 15 -153 20 -204 20 -220 -6 -220 -14 0 -19
-5 -17 -17 4 -24 66 -31 74 -8 6 16 -24 383 -33 398 -2 4 -11 7 -19 7 -8 0
-14 -3 -14 -7z"/>
<path d="M2110 1810 c-9 -17 -17 -19 -51 -14 -88 14 -175 -50 -205 -152 -18
-61 -13 -107 13 -136 24 -27 33 -22 21 13 -20 59 14 166 68 208 36 28 89 41
138 35 38 -6 43 -4 54 21 7 14 10 31 7 36 -10 16 -34 10 -45 -11z"/>
<path d="M2253 1717 c-24 -46 -43 -86 -43 -89 0 -3 11 -3 24 -1 35 7 68 72 64
128 l-3 45 -42 -83z"/>
<path d="M1022 1710 c0 -19 2 -27 5 -17 2 9 2 25 0 35 -3 9 -5 1 -5 -18z"/>
<path d="M1212 1705 c0 -16 2 -22 5 -12 2 9 2 23 0 30 -3 6 -5 -1 -5 -18z"/>
<path d="M2940 1706 c0 -17 -31 -26 -97 -26 -36 0 -53 -4 -53 -12 -1 -7 -7
-39 -15 -71 -13 -57 -13 -58 7 -55 16 2 26 16 37 53 l16 50 70 5 70 5 3 33 c3
27 0 32 -17 32 -12 0 -21 -6 -21 -14z"/>
<path d="M3932 1680 c0 -14 2 -19 5 -12 2 6 2 18 0 25 -3 6 -5 1 -5 -13z"/>
<path d="M4121 1684 c0 -11 3 -14 6 -6 3 7 2 16 -1 19 -3 4 -6 -2 -5 -13z"/>
<path d="M3742 1670 c0 -14 2 -19 5 -12 2 6 2 18 0 25 -3 6 -5 1 -5 -13z"/>
<path d="M1492 1660 c0 -14 2 -19 5 -12 2 6 2 18 0 25 -3 6 -5 1 -5 -13z"/>
<path d="M3866 1569 c-39 -34 -51 -59 -41 -89 6 -18 13 -12 57 42 27 35 55 66
61 70 7 5 0 8 -15 8 -16 0 -41 -12 -62 -31z"/>
<path d="M2237 1583 l-58 -4 -31 -64 c-18 -35 -40 -66 -50 -68 -31 -9 -20 -27
16 -27 33 0 37 4 68 63 33 62 33 62 81 65 39 3 47 6 47 23 0 10 -3 18 -7 17
-5 -1 -34 -3 -66 -5z"/>
<path d="M3578 1573 c-12 -3 -23 -35 -43 -117 -25 -111 -50 -156 -83 -156 -7
0 -12 -4 -12 -10 0 -29 89 11 109 49 6 11 20 60 32 108 28 121 28 121 47 126
10 3 7 5 -8 5 -14 0 -32 -2 -42 -5z"/>
<path d="M3670 1565 c0 -9 13 -45 30 -81 l30 -66 -71 -84 c-39 -46 -68 -87
-65 -92 2 -4 21 -6 42 -4 20 3 31 8 25 11 -7 4 16 39 60 90 38 46 69 86 67 90
-2 4 -16 40 -33 79 -27 65 -33 72 -57 72 -18 0 -28 -5 -28 -15z"/>
<path d="M3125 1542 c-45 -15 -50 -20 -53 -51 -3 -31 -2 -33 20 -27 13 4 42
10 66 13 38 5 42 4 42 -16 0 -14 -8 -22 -27 -27 -52 -11 -88 -27 -115 -52 -25
-23 -28 -23 -49 -8 -24 17 -85 21 -106 8 -9 -5 -43 -123 -43 -148 0 -2 11 -4
25 -4 19 0 26 7 34 38 6 20 11 42 11 48 0 14 23 24 56 24 22 0 24 -3 17 -22
-14 -42 -5 -95 22 -122 37 -37 37 -88 -1 -153 -31 -54 -103 -90 -199 -100 -64
-7 -70 -10 -73 -32 l-4 -24 89 5 c105 6 164 29 209 80 55 62 69 155 29 188
-23 19 -18 29 18 39 31 9 31 9 5 10 -62 2 -86 67 -48 129 25 41 70 68 138 83
60 14 66 20 58 54 -8 32 -42 40 -94 22 -39 -14 -42 -14 -42 4 0 22 26 37 83
49 35 6 37 8 12 8 -16 1 -52 -7 -80 -16z"/>
<path d="M3365 1548 c-2 -7 -9 -39 -15 -70 -9 -46 -15 -57 -32 -60 -17 -2 -25
-15 -35 -53 -14 -56 -16 -92 -3 -60 4 12 14 26 22 33 12 10 15 5 15 -33 0 -64
22 -85 87 -85 l51 1 -39 14 c-47 16 -56 29 -56 77 0 30 27 164 46 231 4 12 0
17 -16 17 -11 0 -22 -6 -25 -12z"/>
<path d="M2918 1521 c-10 -16 -23 -21 -59 -21 -82 0 -139 -11 -139 -28 0 -24
209 -11 227 14 8 10 12 25 11 33 -5 23 -26 24 -40 2z"/>
<path d="M2033 1471 c-37 -40 -121 -46 -198 -15 -18 7 -19 6 -5 -11 35 -42
115 -55 195 -31 34 10 40 16 42 44 3 37 -8 41 -34 13z"/>
<path d="M4160 1417 c-151 -15 -277 -30 -279 -33 -4 -4 28 -83 38 -95 4 -5
478 39 548 51 2 0 10 11 19 25 15 23 15 27 1 49 -9 13 -24 25 -34 28 -10 2
-142 -9 -293 -25z"/>
<path d="M3430 1402 c-13 -49 -13 -52 8 -52 19 0 58 66 44 73 -34 18 -42 15
-52 -21z"/>
<path d="M3170 1379 c-42 -12 -80 -51 -80 -84 0 -34 28 -46 67 -30 36 15 60
47 69 93 7 35 3 37 -56 21z m15 -36 c-7 -28 -32 -63 -45 -63 -4 0 -7 18 -7 39
0 40 2 42 51 50 4 0 5 -11 1 -26z"/>
<path d="M3763 1325 c-24 -30 -43 -58 -43 -61 0 -3 14 -3 30 1 17 4 36 2 43
-3 7 -5 21 -12 32 -14 11 -2 -17 -8 -61 -12 l-82 -7 -14 -52 c-14 -51 -14 -52
6 -55 12 -1 147 11 301 27 232 25 282 33 292 47 17 23 16 46 -1 69 -16 22 -39
22 -238 0 -75 -8 -144 -12 -152 -9 -9 3 -25 33 -37 65 -12 32 -24 59 -28 59
-3 0 -25 -25 -48 -55z"/>
<path d="M2485 1355 c-45 -23 -92 -81 -116 -144 -27 -74 -24 -171 8 -203 l22
-21 -2 54 c-2 102 42 199 113 247 27 18 46 23 83 20 26 -2 47 1 47 5 0 4 -11
19 -25 32 -28 29 -83 33 -130 10z"/>
<path d="M2706 1340 c36 -140 -46 -324 -171 -385 -73 -36 -152 -38 -196 -6
-38 28 -37 11 2 -34 42 -47 89 -61 162 -45 106 22 190 103 237 228 38 101 27
219 -26 263 -15 12 -16 11 -8 -21z"/>
<path d="M1805 1317 c-3 -12 -27 -114 -53 -227 l-48 -205 -35 0 c-31 0 -35 -3
-31 -20 3 -11 9 -26 15 -32 10 -14 73 -18 80 -5 9 13 106 436 109 471 2 26 -1
34 -15 36 -11 2 -19 -5 -22 -18z"/>
<path d="M1998 1307 c-27 -20 -54 -55 -73 -92 -26 -50 -30 -70 -30 -136 0 -66
3 -82 21 -100 l21 -21 -5 50 c-9 96 49 221 119 258 42 21 95 20 120 -2 19 -17
19 -16 8 15 -25 70 -108 83 -181 28z"/>
<path d="M2247 1305 c12 -44 6 -134 -12 -185 -23 -67 -81 -146 -132 -179 -83
-55 -186 -60 -239 -10 l-24 23 10 -31 c43 -122 237 -115 350 13 40 46 80 129
80 167 0 16 5 47 11 71 13 52 -1 114 -32 142 -20 18 -20 18 -12 -11z"/>
<path d="M1606 1178 c29 -79 53 -151 54 -160 0 -9 5 -20 10 -23 21 -13 7 45
-43 179 -29 77 -57 141 -63 143 -7 2 12 -60 42 -139z"/>
<path d="M3523 1270 c-13 -10 -23 -23 -23 -29 0 -14 57 -15 65 -1 3 6 2 10 -4
10 -5 0 -11 9 -13 19 -3 19 -4 19 -25 1z"/>
<path d="M1500 1243 c0 -15 -64 -315 -76 -356 -3 -10 -17 -22 -31 -28 -18 -6
-24 -15 -21 -32 2 -18 9 -22 37 -20 40 2 51 11 56 49 2 16 18 90 36 164 36
156 35 143 20 198 -12 43 -21 54 -21 25z"/>
<path d="M3183 1243 c-25 -17 -30 -33 -11 -33 7 0 23 -11 37 -24 33 -31 101
-60 101 -43 0 20 -13 33 -48 51 -18 9 -30 21 -27 26 3 6 -1 7 -9 4 -9 -3 -16
2 -18 14 -3 18 -5 19 -25 5z"/>
<path d="M20 1209 c0 -5 5 -7 10 -4 6 3 10 8 10 11 0 2 -4 4 -10 4 -5 0 -10
-5 -10 -11z"/>
<path d="M470 1199 c0 -5 5 -7 10 -4 6 3 10 8 10 11 0 2 -4 4 -10 4 -5 0 -10
-5 -10 -11z"/>
<path d="M3375 1151 c0 -101 -85 -175 -200 -176 -67 0 -89 -16 -61 -44 26 -25
149 -22 201 6 71 38 115 105 115 176 0 31 -31 87 -48 87 -4 0 -7 -22 -7 -49z"/>
<path d="M2846 1169 c-11 -31 -36 -138 -36 -153 0 -10 9 -16 24 -16 22 0 26 7
38 63 l13 62 53 0 c56 -1 59 1 38 30 -17 24 -123 35 -130 14z"/>
<path d="M4385 1159 c-93 -10 -222 -23 -285 -29 -63 -6 -191 -19 -285 -28
l-169 -17 -17 -55 c-9 -30 -16 -56 -15 -57 3 -3 676 63 911 88 123 14 135 20
135 64 0 61 -11 63 -275 34z"/>
<path d="M985 1118 c-347 -32 -365 -36 -365 -88 0 -58 -7 -58 470 -15 25 2 82
7 127 11 l81 6 16 49 c19 58 20 69 4 68 -7 -1 -157 -15 -333 -31z"/>
<path d="M335 1120 c-3 -5 -1 -10 4 -10 6 0 11 5 11 10 0 6 -2 10 -4 10 -3 0
-8 -4 -11 -10z"/>
<path d="M105 1021 c-3 -5 -1 -12 5 -16 12 -7 30 2 30 16 0 12 -27 12 -35 0z"/>
<path d="M955 974 c-132 -13 -285 -25 -340 -27 -55 -3 -107 -7 -115 -10 -8 -4
-28 -7 -45 -9 -23 -2 -34 -11 -45 -35 -8 -18 -21 -33 -27 -33 -14 0 -18 -22
-7 -33 4 -3 15 -2 25 3 12 7 20 6 24 -1 8 -11 145 -6 290 11 108 13 128 13
119 -2 -4 -7 1 -6 12 3 14 12 70 20 214 33 107 10 196 19 196 19 1 1 9 26 17
55 l16 52 -47 -1 c-26 -1 -155 -12 -287 -25z"/>
<path d="M1189 856 c-2 -3 -46 -7 -96 -10 -50 -3 -103 -8 -118 -12 -18 -4 -30
-2 -36 7 -7 11 -11 11 -17 2 -4 -6 -31 -15 -60 -19 -56 -7 -67 -15 -77 -56 -6
-22 -2 -29 22 -41 24 -13 51 -12 215 2 102 9 189 19 193 23 4 4 14 4 23 1 14
-4 14 -3 3 5 -13 9 -12 27 5 85 4 13 -1 17 -24 17 -16 0 -31 -2 -33 -4z"/>
<path d="M295 830 c-3 -5 -2 -10 4 -10 5 0 13 5 16 10 3 6 2 10 -4 10 -5 0
-13 -4 -16 -10z"/>
<path d="M3156 769 c-9 -46 -7 -71 4 -64 6 3 10 15 10 26 0 25 17 25 25 -1 7
-23 35 -27 35 -6 0 7 3 28 6 45 7 36 -10 43 -20 9 l-6 -23 -15 23 c-22 30 -31
28 -39 -9z"/>
<path d="M2996 771 c-10 -11 -16 -30 -14 -43 2 -19 9 -23 38 -23 27 0 37 6 49
27 13 22 13 29 2 42 -18 22 -54 20 -75 -3z m57 -7 c11 -12 -13 -44 -33 -44
-20 0 -28 29 -13 43 8 9 38 9 46 1z"/>
<path d="M241 771 c-17 -11 -7 -41 13 -41 22 0 30 20 15 36 -9 8 -19 10 -28 5z"/>
<path d="M2747 773 c-4 -3 -2 -12 4 -20 7 -7 9 -26 5 -43 -3 -17 -2 -30 3 -30
11 0 21 25 21 51 0 11 7 22 15 25 8 4 15 10 15 15 0 10 -53 12 -63 2z"/>
<path d="M2885 753 c-4 -16 -8 -36 -10 -45 -2 -10 1 -18 5 -18 12 0 16 9 24
53 8 43 -10 53 -19 10z"/>
<path d="M607 763 c-13 -13 -7 -32 8 -27 8 4 15 12 15 20 0 15 -12 19 -23 7z"/>
<path d="M2604 725 c-14 -25 -23 -49 -20 -53 4 -3 11 0 16 7 5 9 18 12 39 8
17 -4 31 -4 31 0 0 18 -24 83 -31 83 -5 0 -20 -20 -35 -45z"/>
<path d="M164 745 c-17 -13 -17 -14 -2 -15 9 0 20 5 23 11 11 17 0 20 -21 4z"/>
<path d="M2497 743 c-15 -54 -17 -73 -7 -73 12 0 16 9 24 58 6 33 -9 46 -17
15z"/>
<path d="M2347 732 c-21 -23 -22 -61 -2 -68 20 -8 67 4 61 15 -3 5 -17 6 -32
3 -22 -4 -25 -2 -22 19 2 19 10 25 36 27 18 2 30 8 27 13 -10 15 -51 10 -68
-9z"/>
<path d="M2047 728 c-21 -11 -22 -37 -2 -44 21 -9 19 -26 -3 -22 -11 2 -21 -1
-23 -7 -6 -15 40 -18 57 -5 20 18 17 35 -8 48 l-23 11 23 0 c12 1 22 5 22 10
0 14 -25 20 -43 9z"/>
<path d="M2174 715 c-21 -32 -10 -58 28 -63 30 -4 61 28 56 60 -2 18 -10 24
-35 26 -25 3 -35 -2 -49 -23z m64 -11 c-5 -25 -35 -41 -49 -27 -9 9 -9 16 1
28 17 21 52 20 48 -1z"/>
<path d="M1897 715 c-18 -17 -12 -45 9 -45 8 0 14 -5 14 -11 0 -7 -10 -9 -26
-5 -19 5 -25 3 -22 -6 7 -20 44 -21 63 -2 17 17 16 19 -4 35 -27 22 -27 32 0
24 15 -5 20 -3 17 6 -7 20 -33 22 -51 4z"/>
<path d="M1736 670 c-29 -53 -28 -58 4 -38 16 10 24 10 40 0 17 -10 20 -10 20
6 0 26 -20 82 -29 82 -4 0 -20 -22 -35 -50z"/>
<path d="M93 675 c-3 -9 -2 -19 1 -23 8 -8 38 10 44 26 6 18 -38 14 -45 -3z"/>
<path d="M374 669 c-10 -17 13 -36 27 -22 12 12 4 33 -11 33 -5 0 -12 -5 -16
-11z"/>
<path d="M462 663 c2 -10 10 -18 18 -18 22 0 18 29 -3 33 -14 3 -18 -1 -15
-15z"/>
<path d="M555 669 c-11 -17 1 -21 15 -4 8 9 8 15 2 15 -6 0 -14 -5 -17 -11z"/>
<path d="M647 673 c-12 -11 -8 -23 8 -23 8 0 15 7 15 15 0 16 -12 20 -23 8z"/>
<path d="M737 673 c-12 -11 -8 -23 8 -23 8 0 15 7 15 15 0 16 -12 20 -23 8z"/>
<path d="M826 673 c-11 -11 -6 -23 9 -23 8 0 15 4 15 9 0 13 -16 22 -24 14z"/>
<path d="M916 673 c-11 -11 -6 -23 9 -23 8 0 15 4 15 9 0 13 -16 22 -24 14z"/>
<path d="M1095 669 c-10 -15 3 -25 16 -12 7 7 7 13 1 17 -6 3 -14 1 -17 -5z"/>
<path d="M25 657 c-13 -10 -15 -16 -6 -21 12 -8 41 10 41 25 0 13 -13 11 -35
-4z"/>
<path d="M292 663 c-6 -2 -10 -9 -7 -13 7 -11 35 -2 35 11 0 10 -8 10 -28 2z"/>
<path d="M1005 660 c3 -5 10 -10 16 -10 5 0 9 5 9 10 0 6 -7 10 -16 10 -8 0
-12 -4 -9 -10z"/>
<path d="M1185 660 c3 -5 8 -10 11 -10 2 0 4 5 4 10 0 6 -5 10 -11 10 -5 0 -7
-4 -4 -10z"/>
<path d="M1275 660 c3 -5 8 -10 11 -10 2 0 4 5 4 10 0 6 -5 10 -11 10 -5 0 -7
-4 -4 -10z"/>
<path d="M1365 660 c3 -5 8 -10 11 -10 2 0 4 5 4 10 0 6 -5 10 -11 10 -5 0 -7
-4 -4 -10z"/>
<path d="M150 585 c-20 -24 4 -45 26 -24 13 14 13 17 1 27 -11 10 -17 9 -27
-3z"/>
<path d="M240 586 c-13 -17 -6 -36 15 -36 19 0 26 27 11 39 -10 8 -17 7 -26
-3z"/>
<path d="M413 584 c-8 -21 13 -42 28 -27 13 13 5 43 -11 43 -6 0 -13 -7 -17
-16z"/>
<path d="M60 580 c-11 -7 -12 -12 -3 -21 14 -14 46 -4 41 13 -6 16 -20 19 -38
8z"/>
<path d="M325 580 c-4 -7 -3 -16 3 -22 14 -14 45 -2 40 15 -6 16 -34 21 -43 7z"/>
<path d="M602 574 c4 -21 22 -23 26 -1 2 10 -3 17 -13 17 -10 0 -15 -6 -13
-16z"/>
<path d="M690 575 c0 -8 7 -15 15 -15 8 0 15 7 15 15 0 8 -7 15 -15 15 -8 0
-15 -7 -15 -15z"/>
<path d="M780 576 c0 -9 7 -16 16 -16 17 0 14 22 -4 28 -7 2 -12 -3 -12 -12z"/>
<path d="M870 575 c0 -9 5 -15 11 -13 6 2 11 8 11 13 0 5 -5 11 -11 13 -6 2
-11 -4 -11 -13z"/>
<path d="M960 575 c0 -8 5 -15 10 -15 6 0 10 7 10 15 0 8 -4 15 -10 15 -5 0
-10 -7 -10 -15z"/>
<path d="M1050 575 c0 -8 5 -15 10 -15 6 0 10 7 10 15 0 8 -4 15 -10 15 -5 0
-10 -7 -10 -15z"/>
<path d="M1140 570 c0 -5 5 -10 10 -10 6 0 10 5 10 10 0 6 -4 10 -10 10 -5 0
-10 -4 -10 -10z"/>
<path d="M1230 570 c0 -5 5 -10 10 -10 6 0 10 5 10 10 0 6 -4 10 -10 10 -5 0
-10 -4 -10 -10z"/>
<path d="M1320 569 c0 -5 5 -7 10 -4 6 3 10 8 10 11 0 2 -4 4 -10 4 -5 0 -10
-5 -10 -11z"/>
<path d="M8 498 c-8 -21 2 -38 22 -38 23 0 32 13 24 34 -7 19 -40 21 -46 4z"/>
<path d="M193 499 c-15 -15 -5 -39 17 -39 22 0 32 24 17 39 -6 6 -14 11 -17
11 -3 0 -11 -5 -17 -11z"/>
<path d="M280 495 c-6 -8 -9 -19 -5 -25 10 -16 42 -12 49 6 12 32 -21 47 -44
19z"/>
<path d="M377 503 c-4 -3 -7 -13 -7 -21 0 -12 3 -12 15 -2 8 7 15 16 15 21 0
11 -14 12 -23 2z"/>
<path d="M115 480 c-17 -19 -17 -20 2 -20 12 0 23 7 26 15 9 23 -9 26 -28 5z"/>
<path d="M481 486 c-8 -9 -11 -19 -7 -23 9 -9 29 13 24 27 -2 8 -8 7 -17 -4z"/>
<path d="M552 483 c2 -10 10 -18 18 -18 8 0 16 8 18 18 2 12 -3 17 -18 17 -15
0 -20 -5 -18 -17z"/>
<path d="M642 483 c4 -21 33 -25 33 -3 0 8 -8 16 -18 18 -14 3 -18 -1 -15 -15z"/>
<path d="M730 486 c0 -8 4 -17 9 -20 11 -7 33 18 24 27 -12 12 -33 7 -33 -7z"/>
<path d="M820 485 c0 -8 7 -15 15 -15 8 0 15 7 15 15 0 8 -7 15 -15 15 -8 0
-15 -7 -15 -15z"/>
<path d="M912 483 c4 -21 33 -25 33 -3 0 8 -8 16 -18 18 -14 3 -18 -1 -15 -15z"/>
<path d="M1000 485 c0 -8 7 -15 15 -15 8 0 15 7 15 15 0 8 -7 15 -15 15 -8 0
-15 -7 -15 -15z"/>
<path d="M1096 493 c-11 -11 -6 -23 9 -23 8 0 15 4 15 9 0 13 -16 22 -24 14z"/>
<path d="M1186 493 c-11 -11 -6 -23 9 -23 8 0 15 4 15 9 0 13 -16 22 -24 14z"/>
<path d="M1275 489 c-10 -15 3 -25 16 -12 7 7 7 13 1 17 -6 3 -14 1 -17 -5z"/>
<path d="M1365 480 c4 -6 11 -8 16 -5 14 9 11 15 -7 15 -8 0 -12 -5 -9 -10z"/>
<path d="M1455 480 c3 -5 8 -10 11 -10 2 0 4 5 4 10 0 6 -5 10 -11 10 -5 0 -7
-4 -4 -10z"/>
<path d="M57 414 c-4 -4 -7 -16 -7 -26 0 -13 7 -18 26 -18 21 0 25 4 22 22 -3
23 -27 35 -41 22z"/>
<path d="M144 405 c-8 -21 2 -45 19 -45 20 0 40 27 33 45 -7 19 -45 20 -52 0z"/>
<path d="M232 398 c4 -30 43 -33 43 -3 0 13 -8 21 -23 23 -20 3 -23 0 -20 -20z"/>
<path d="M414 405 c-4 -9 -2 -21 4 -27 15 -15 44 -1 40 19 -4 23 -36 29 -44 8z"/>
<path d="M507 413 c-12 -12 -7 -31 10 -37 20 -8 36 14 21 31 -12 14 -21 16
-31 6z"/>
<path d="M601 411 c-17 -11 -7 -41 13 -41 22 0 30 20 15 36 -9 8 -19 10 -28 5z"/>
<path d="M870 405 c-6 -8 -9 -19 -6 -24 9 -14 36 -2 36 14 0 21 -16 26 -30 10z"/>
<path d="M682 393 c2 -10 10 -18 18 -18 8 0 16 8 18 18 2 12 -3 17 -18 17 -15
0 -20 -5 -18 -17z"/>
<path d="M774 399 c-7 -12 15 -31 28 -23 4 3 8 12 8 20 0 17 -26 19 -36 3z"/>
<path d="M955 400 c-3 -6 1 -13 10 -16 19 -8 30 0 20 15 -8 14 -22 14 -30 1z"/>
<path d="M1045 401 c-7 -12 12 -24 25 -16 11 7 4 25 -10 25 -5 0 -11 -4 -15
-9z"/>
<path d="M1140 395 c0 -8 5 -15 10 -15 6 0 10 7 10 15 0 8 -4 15 -10 15 -5 0
-10 -7 -10 -15z"/>
<path d="M1230 395 c0 -8 5 -15 10 -15 6 0 10 7 10 15 0 8 -4 15 -10 15 -5 0
-10 -7 -10 -15z"/>
<path d="M1320 396 c0 -9 5 -16 10 -16 6 0 10 4 10 9 0 6 -4 13 -10 16 -5 3
-10 -1 -10 -9z"/>
<path d="M1410 390 c0 -5 5 -10 10 -10 6 0 10 5 10 10 0 6 -4 10 -10 10 -5 0
-10 -4 -10 -10z"/>
<path d="M1500 389 c0 -5 5 -7 10 -4 6 3 10 8 10 11 0 2 -4 4 -10 4 -5 0 -10
-5 -10 -11z"/>
<path d="M4970 352 c0 -5 7 -15 15 -22 8 -7 15 -8 15 -2 0 5 -7 15 -15 22 -8
7 -15 8 -15 2z"/>
<path d="M11 331 c-22 -14 -5 -63 21 -59 11 2 26 11 32 21 9 15 7 21 -8 33
-23 16 -26 17 -45 5z"/>
<path d="M89 318 c-10 -18 -8 -24 7 -35 21 -15 24 -16 43 -4 9 6 11 18 7 35
-8 32 -41 35 -57 4z"/>
<path d="M184 315 c-10 -26 6 -38 27 -19 10 9 19 21 19 26 0 14 -40 9 -46 -7z"/>
<path d="M364 315 c-8 -20 4 -35 26 -35 23 0 32 13 24 34 -8 20 -43 21 -50 1z"/>
<path d="M472 318 c-18 -18 -14 -38 8 -38 15 0 20 7 20 25 0 27 -9 32 -28 13z"/>
<path d="M546 313 c-4 -9 -2 -21 3 -26 15 -15 41 0 41 23 0 25 -35 28 -44 3z"/>
<path d="M642 317 c-15 -17 1 -42 23 -33 18 6 17 37 -1 43 -6 2 -16 -2 -22
-10z"/>
<path d="M732 317 c-15 -17 1 -42 23 -33 18 6 17 37 -1 43 -6 2 -16 -2 -22
-10z"/>
<path d="M814 319 c-10 -17 23 -46 38 -31 8 8 8 15 -2 27 -15 18 -26 19 -36 4z"/>
<path d="M910 306 c0 -8 4 -17 9 -20 11 -7 33 18 24 27 -12 12 -33 7 -33 -7z"/>
<path d="M1000 305 c0 -8 7 -15 15 -15 8 0 15 7 15 15 0 8 -7 15 -15 15 -8 0
-15 -7 -15 -15z"/>
<path d="M1090 305 c0 -8 7 -15 15 -15 8 0 15 7 15 15 0 8 -7 15 -15 15 -8 0
-15 -7 -15 -15z"/>
<path d="M1180 304 c0 -17 22 -14 28 4 2 7 -3 12 -12 12 -9 0 -16 -7 -16 -16z"/>
<path d="M1270 306 c0 -9 7 -16 16 -16 17 0 14 22 -4 28 -7 2 -12 -3 -12 -12z"/>
<path d="M1365 309 c-10 -15 3 -25 16 -12 7 7 7 13 1 17 -6 3 -14 1 -17 -5z"/>
<path d="M1456 311 c-4 -5 -2 -12 3 -15 5 -4 12 -2 15 3 4 5 2 12 -3 15 -5 4
-12 2 -15 -3z"/>
<path d="M310 295 c-8 -9 -8 -15 -2 -15 12 0 26 19 19 26 -2 2 -10 -2 -17 -11z"/>
<path d="M1545 300 c3 -5 8 -10 11 -10 2 0 4 5 4 10 0 6 -5 10 -11 10 -5 0 -7
-4 -4 -10z"/>
<path d="M1635 300 c3 -5 8 -10 11 -10 2 0 4 5 4 10 0 6 -5 10 -11 10 -5 0 -7
-4 -4 -10z"/>
<path d="M1815 300 c3 -5 8 -10 11 -10 2 0 4 5 4 10 0 6 -5 10 -11 10 -5 0 -7
-4 -4 -10z"/>
<path d="M0 220 c0 -18 4 -29 10 -25 6 3 10 15 10 25 0 10 -4 22 -10 25 -6 4
-10 -7 -10 -25z"/>
<path d="M50 236 c-27 -33 18 -72 48 -42 13 13 14 20 6 34 -15 23 -38 26 -54
8z"/>
<path d="M246 221 c-17 -19 -15 -41 4 -41 16 0 39 31 34 45 -8 20 -17 19 -38
-4z"/>
<path d="M318 228 c-7 -19 2 -38 17 -38 13 0 35 29 35 44 0 12 -48 6 -52 -6z"/>
<path d="M410 215 c0 -33 28 -45 46 -20 16 22 2 45 -27 45 -14 0 -19 -7 -19
-25z"/>
<path d="M498 235 c-3 -3 -3 -15 -1 -26 7 -27 48 -22 48 6 0 19 -33 33 -47 20z"/>
<path d="M594 225 c-4 -9 -2 -21 4 -27 15 -15 44 -1 40 19 -4 23 -36 29 -44 8z"/>
<path d="M687 234 c-4 -4 -7 -16 -7 -26 0 -14 6 -19 23 -16 14 2 22 10 22 23
0 20 -25 32 -38 19z"/>
<path d="M773 224 c-8 -21 13 -42 28 -27 13 13 5 43 -11 43 -6 0 -13 -7 -17
-16z"/>
<path d="M870 224 c-9 -10 -10 -18 -2 -26 12 -12 32 -2 32 17 0 21 -16 26 -30
9z"/>
<path d="M950 216 c0 -15 24 -28 34 -19 13 14 5 33 -14 33 -11 0 -20 -6 -20
-14z"/>
<path d="M1047 223 c-13 -12 -7 -23 13 -23 11 0 20 7 20 15 0 15 -21 21 -33 8z"/>
<path d="M1135 221 c-6 -11 9 -23 19 -14 9 9 7 23 -3 23 -6 0 -12 -4 -16 -9z"/>
<path d="M1227 224 c-9 -10 2 -24 19 -24 8 0 14 7 14 15 0 15 -21 21 -33 9z"/>
<path d="M1317 224 c-8 -8 1 -24 14 -24 5 0 9 7 9 15 0 15 -12 20 -23 9z"/>
<path d="M1410 215 c0 -8 5 -15 10 -15 6 0 10 7 10 15 0 8 -4 15 -10 15 -5 0
-10 -7 -10 -15z"/>
<path d="M1500 216 c0 -9 5 -16 10 -16 6 0 10 4 10 9 0 6 -4 13 -10 16 -5 3
-10 -1 -10 -9z"/>
<path d="M4587 224 c-3 -3 38 -55 91 -115 96 -107 97 -108 142 -108 l45 0
-120 114 c-110 105 -141 126 -158 109z"/>
<path d="M1590 209 c0 -5 5 -7 10 -4 6 3 10 8 10 11 0 2 -4 4 -10 4 -5 0 -10
-5 -10 -11z"/>
<path d="M1680 209 c0 -5 5 -7 10 -4 6 3 10 8 10 11 0 2 -4 4 -10 4 -5 0 -10
-5 -10 -11z"/>
<path d="M7 153 c-10 -9 -9 -51 2 -57 12 -8 54 41 46 53 -7 12 -38 15 -48 4z"/>
<path d="M181 142 c-13 -25 8 -56 35 -50 29 5 27 62 -3 66 -13 2 -26 -4 -32
-16z"/>
<path d="M282 151 c-8 -5 -12 -17 -10 -27 3 -15 6 -14 21 9 18 27 13 34 -11
18z"/>
<path d="M373 153 c-18 -7 -16 -52 2 -59 21 -9 47 15 43 40 -3 21 -22 29 -45
19z"/>
<path d="M641 147 c-21 -21 -13 -47 14 -47 20 0 25 5 25 24 0 27 -22 40 -39
23z"/>
<path d="M453 134 c-3 -8 1 -22 9 -30 12 -12 17 -12 33 -1 23 17 14 47 -15 47
-11 0 -23 -7 -27 -16z"/>
<path d="M544 135 c-8 -19 3 -35 26 -35 19 0 30 17 23 38 -6 17 -42 15 -49 -3z"/>
<path d="M724 135 c-4 -9 -2 -21 4 -27 15 -15 44 -1 40 19 -4 23 -36 29 -44 8z"/>
<path d="M816 134 c-4 -10 -2 -22 3 -27 14 -14 43 0 39 20 -4 24 -34 28 -42 7z"/>
<path d="M912 137 c-15 -17 1 -42 23 -33 18 6 17 37 -1 43 -6 2 -16 -2 -22
-10z"/>
<path d="M1001 136 c-9 -10 -8 -16 3 -25 10 -9 16 -8 25 3 9 10 8 16 -3 25
-10 9 -16 8 -25 -3z"/>
<path d="M1187 144 c-4 -4 -7 -16 -7 -26 0 -20 25 -25 36 -7 8 13 -19 43 -29
33z"/>
<path d="M1090 124 c0 -8 5 -12 10 -9 6 3 10 10 10 16 0 5 -4 9 -10 9 -5 0
-10 -7 -10 -16z"/>
<path d="M1270 125 c0 -8 7 -15 15 -15 8 0 15 7 15 15 0 8 -7 15 -15 15 -8 0
-15 -7 -15 -15z"/>
<path d="M1360 125 c0 -8 7 -15 15 -15 8 0 15 7 15 15 0 8 -7 15 -15 15 -8 0
-15 -7 -15 -15z"/>
<path d="M1450 125 c0 -9 5 -15 11 -13 6 2 11 8 11 13 0 5 -5 11 -11 13 -6 2
-11 -4 -11 -13z"/>
<path d="M1545 129 c-10 -15 3 -25 16 -12 7 7 7 13 1 17 -6 3 -14 1 -17 -5z"/>
<path d="M1636 131 c-4 -5 -2 -12 3 -15 5 -4 12 -2 15 3 4 5 2 12 -3 15 -5 4
-12 2 -15 -3z"/>
<path d="M306 111 c-19 -21 -12 -28 13 -12 7 5 12 14 9 21 -2 7 -10 4 -22 -9z"/>
<path d="M4419 75 c37 -54 60 -80 65 -74 3 3 -15 27 -40 55 -25 27 -36 36 -25
19z"/>
<path d="M134 56 c-11 -28 1 -51 25 -51 32 0 49 28 32 49 -17 20 -50 21 -57 2z"/>
<path d="M313 54 c-15 -39 38 -67 60 -32 8 12 7 21 -2 32 -17 21 -50 20 -58 0z"/>
<path d="M412 58 c-25 -25 0 -64 32 -52 21 8 21 50 0 58 -20 8 -18 8 -32 -6z"/>
<path d="M590 55 c-17 -20 -5 -45 20 -45 11 0 23 7 26 15 6 15 -11 45 -26 45
-4 0 -13 -7 -20 -15z"/>
<path d="M76 31 l-30 -31 27 0 c28 0 41 17 35 45 -2 13 -9 10 -32 -14z"/>
<path d="M247 42 c-25 -28 -21 -44 11 -40 21 2 27 8 27 27 0 31 -17 37 -38 13z"/>
<path d="M496 44 c-7 -19 10 -44 29 -44 19 0 36 25 29 44 -8 21 -50 21 -58 0z"/>
<path d="M680 35 c0 -29 34 -36 44 -9 8 21 -1 34 -25 34 -14 0 -19 -7 -19 -25z"/>
<path d="M774 45 c-7 -18 3 -35 21 -35 15 0 24 19 18 38 -6 17 -32 15 -39 -3z"/>
<path d="M863 44 c-9 -23 13 -40 32 -24 12 10 13 16 4 26 -15 18 -28 18 -36
-2z"/>
<path d="M953 44 c-8 -21 13 -42 28 -27 13 13 5 43 -11 43 -6 0 -13 -7 -17
-16z"/>
<path d="M1133 44 c-8 -21 13 -42 28 -27 13 13 5 43 -11 43 -6 0 -13 -7 -17
-16z"/>
<path d="M1045 39 c-11 -17 1 -21 15 -4 8 9 8 15 2 15 -6 0 -14 -5 -17 -11z"/>
<path d="M1225 40 c-11 -17 5 -32 21 -19 8 6 14 15 14 20 0 12 -27 11 -35 -1z"/>
<path d="M1317 44 c-8 -8 1 -24 14 -24 5 0 9 7 9 15 0 15 -12 20 -23 9z"/>
<path d="M1407 44 c-8 -8 1 -24 14 -24 5 0 9 7 9 15 0 15 -12 20 -23 9z"/>
<path d="M1497 44 c-8 -8 1 -24 14 -24 5 0 9 7 9 15 0 15 -12 20 -23 9z"/>
<path d="M1590 36 c0 -9 5 -16 10 -16 6 0 10 4 10 9 0 6 -4 13 -10 16 -5 3
-10 -1 -10 -9z"/>
<path d="M1680 34 c0 -8 5 -12 10 -9 6 4 8 11 5 16 -9 14 -15 11 -15 -7z"/>
</g>
</svg>
